<?xml version="1.0" standalone="no"?>
<!DOCTYPE svg PUBLIC "-//W3C//DTD SVG 20010904//EN"
 "http://www.w3.org/TR/2001/REC-SVG-20010904/DTD/svg10.dtd">
<svg version="1.0" xmlns="http://www.w3.org/2000/svg"
 width="512.000000pt" height="512.000000pt" viewBox="0 0 512.000000 512.000000"
 preserveAspectRatio="xMidYMid meet">
<metadata>
Created by potrace 1.11, written by Peter Selinger 2001-2013
</metadata>
<g transform="translate(0.000000,512.000000) scale(0.100000,-0.100000)"
fill="#000000" stroke="none">
<path d="M310 2560 l0 -2560 2255 0 2255 0 0 2560 0 2560 -145 0 c-108 0 -147
-3 -150 -12 -8 -25 -64 -748 -85 -1093 -24 -412 -36 -720 -50 -1240 -8 -269
-15 -402 -26 -455 -9 -41 -53 -169 -99 -285 -46 -115 -116 -311 -155 -435 -40
-124 -108 -323 -151 -442 -44 -119 -79 -225 -79 -235 0 -26 58 -95 142 -170
106 -94 105 -94 156 -80 50 13 81 1 116 -46 18 -25 21 -42 20 -135 0 -94 -4
-116 -29 -177 -36 -90 -68 -147 -117 -212 -66 -89 -51 -86 -371 -87 -312 -1
-325 1 -415 61 -96 65 -180 222 -228 428 -14 61 -19 116 -18 230 1 167 18 267
76 440 l33 100 -3 225 c-1 124 -6 240 -12 258 -5 18 -36 76 -70 128 -62 95
-234 448 -263 540 -39 121 -74 399 -62 493 12 95 43 174 110 285 112 185 199
283 407 459 86 72 107 94 103 111 -3 12 -9 66 -15 121 -10 97 -30 214 -124
750 -66 374 -77 438 -83 458 -4 16 -82 17 -1464 17 l-1459 0 0 -2560z m1002
2509 c125 -26 217 -103 255 -212 27 -78 24 -272 -5 -347 -37 -94 -92 -144
-207 -185 -16 -6 -8 -11 40 -27 151 -50 175 -110 190 -481 6 -155 13 -188 47
-224 l21 -23 -165 0 -165 0 -13 28 c-8 16 -16 100 -21 217 -11 247 -16 287
-42 327 -37 55 -76 68 -204 68 l-113 0 0 -320 0 -320 -150 0 -150 0 0 755 0
755 315 0 c191 0 335 -4 367 -11z m1340 -91 c2 -57 1 -111 -1 -120 -3 -17 -24
-18 -272 -18 l-269 0 0 -185 0 -185 255 0 255 0 0 -120 0 -120 -255 0 -255 0
0 -210 0 -210 285 0 285 0 0 -120 0 -120 -435 0 -435 0 0 755 0 755 419 0 420
0 3 -102z m-1722 -2243 l0 -635 375 0 375 0 0 -120 0 -120 -525 0 -525 0 0
755 0 755 150 0 150 0 0 -635z m1730 515 l0 -120 -270 0 -270 0 0 -180 0 -180
253 -2 252 -3 3 -122 3 -123 -256 0 -255 0 2 -207 3 -208 278 -3 277 -2 0
-120 0 -120 -430 0 -430 0 0 755 0 755 420 0 420 0 0 -120z m-1700 -1697 c12
-65 44 -228 70 -363 26 -135 65 -336 86 -448 21 -111 41 -199 45 -195 7 7 82
367 201 966 l32 157 153 0 c84 0 153 -2 153 -5 0 -3 -18 -83 -40 -178 -23 -94
-52 -221 -65 -282 -14 -60 -35 -155 -48 -210 -12 -55 -61 -265 -107 -468 l-85
-367 -195 2 -194 3 -63 270 c-35 149 -110 479 -169 735 -58 256 -107 473 -110
483 -5 16 7 17 154 17 l160 0 22 -117z m1690 -3 l0 -120 -270 0 -270 0 0 -185
0 -185 255 0 255 0 0 -120 0 -120 -252 -2 -253 -3 -3 -207 -2 -208 279 0 280
0 3 -120 3 -120 -432 0 -433 0 0 755 0 755 420 0 420 0 0 -120z"/>
<path d="M937 4863 c-10 -9 -9 -441 1 -446 4 -2 57 0 119 3 99 6 116 9 153 34
58 38 80 90 80 190 0 137 -49 199 -172 216 -74 11 -172 13 -181 3z"/>
<path d="M3415 5093 c19 -79 176 -1051 181 -1129 7 -89 6 -93 -25 -154 -62
-122 -142 -208 -360 -391 -156 -130 -229 -202 -237 -235 -18 -69 13 -330 56
-482 38 -135 182 -444 270 -578 27 -42 54 -93 60 -113 5 -20 14 -134 19 -254
l10 -219 -40 -116 c-120 -353 -109 -630 38 -925 111 -222 238 -272 626 -246
l179 13 -5 39 c-12 91 -85 150 -160 130 l-40 -11 -88 69 c-103 81 -135 117
-148 165 -11 41 -12 38 74 269 36 99 114 320 172 490 57 171 130 375 160 455
96 252 84 144 103 915 19 766 52 1286 131 2095 11 113 22 213 25 223 5 16 -23
17 -501 17 l-507 0 7 -27z"/>
<path d="M4171 174 c0 -11 3 -14 6 -6 3 7 2 16 -1 19 -3 4 -6 -2 -5 -13z"/>
</g>
</svg>
