<?xml version="1.0" standalone="no"?>
<!DOCTYPE svg PUBLIC "-//W3C//DTD SVG 20010904//EN"
 "http://www.w3.org/TR/2001/REC-SVG-20010904/DTD/svg10.dtd">
<svg version="1.0" xmlns="http://www.w3.org/2000/svg"
 width="1024.000000pt" height="1024.000000pt" viewBox="0 0 1024.000000 1024.000000"
 preserveAspectRatio="xMidYMid meet">
<metadata>
Created by potrace 1.11, written by Peter Selinger 2001-2013
</metadata>
<g transform="translate(0.000000,1024.000000) scale(0.100000,-0.100000)"
fill="#000000" stroke="none">
<path d="M1 5120 l2 -5120 3636 1 3636 0 -75 22 c-152 46 -236 104 -330 229
-130 172 -245 439 -298 688 -82 385 -40 807 129 1296 l51 147 -12 426 c-8 300
-16 441 -26 476 -8 31 -51 106 -110 195 -94 141 -141 231 -362 695 -118 247
-146 314 -172 415 -74 291 -113 777 -75 953 71 336 382 725 925 1157 58 46
133 108 168 138 l63 54 -7 62 c-39 384 -211 1438 -454 2791 -33 182 -65 366
-73 410 l-13 80 -3302 3 -3303 2 2 -5120z m2307 4882 c288 -76 461 -251 517
-522 34 -163 27 -384 -16 -541 -60 -216 -221 -383 -417 -432 l-53 -13 83 -21
c171 -42 258 -107 319 -238 52 -112 67 -196 79 -460 28 -616 32 -646 106 -725
24 -26 44 -50 44 -54 0 -3 -152 -6 -338 -6 l-338 0 -22 43 c-42 85 -49 145
-62 591 -11 351 -21 427 -64 501 -33 55 -72 90 -131 117 -47 21 -65 23 -272
26 l-223 4 0 -641 0 -641 -310 0 -310 0 0 1520 0 1521 663 -4 c645 -3 664 -4
745 -25z m2660 -224 l-3 -253 -537 -3 -536 -2 -4 -348 c-2 -191 -2 -350 0
-354 2 -5 230 -8 508 -8 l504 0 0 -250 0 -250 -507 -2 -508 -3 0 -405 0 -405
563 -3 562 -2 0 -250 0 -250 -870 0 -870 0 0 1520 0 1520 850 0 850 0 -2 -252z
m-3448 -4418 l0 -1270 755 0 755 0 0 -255 0 -255 -1062 2 -1063 3 -3 1510 c-1
831 0 1516 3 1523 3 9 75 12 310 12 l305 0 0 -1270z m3465 1015 l0 -250 -542
-3 -543 -2 0 -355 0 -355 510 0 510 0 -2 -252 -3 -253 -507 -3 -508 -2 0 -405
0 -405 565 0 565 0 -2 -252 -3 -253 -870 0 -870 0 -3 1510 c-1 831 0 1516 3
1523 3 10 179 12 852 10 l848 -3 0 -250z m-3401 -3365 c35 -185 72 -378 236
-1235 39 -203 90 -466 114 -584 l43 -214 11 54 c6 30 101 499 211 1044 215
1068 230 1137 235 1142 5 5 629 4 633 -1 2 -2 -5 -40 -17 -85 -11 -45 -50
-209 -85 -364 -35 -155 -96 -421 -135 -592 -39 -170 -101 -438 -136 -595 -36
-157 -96 -422 -135 -590 -38 -168 -95 -419 -126 -557 l-57 -253 -401 0 -401 0
-52 232 c-28 128 -70 312 -92 408 -22 96 -60 265 -84 375 -42 188 -75 332
-240 1050 -37 160 -96 418 -132 574 -59 263 -77 337 -90 383 -5 17 17 18 318
20 205 2 327 -1 334 -7 7 -5 28 -98 48 -205z m3381 -40 l0 -245 -540 -5 -540
-5 -3 -352 -2 -353 510 0 510 0 0 -255 0 -255 -510 0 -510 0 0 -405 0 -405
565 0 565 0 0 -255 0 -255 -875 0 -875 0 0 1520 0 1520 853 -2 852 -3 0 -245z"/>
<path d="M1520 9142 c0 -236 2 -431 4 -433 2 -2 96 -1 208 2 179 5 210 8 261
28 165 65 233 187 231 421 0 172 -46 278 -146 344 -83 55 -143 66 -365 66
l-193 0 0 -428z"/>
<path d="M6800 10229 c0 -12 57 -349 185 -1089 52 -300 124 -720 160 -935 36
-214 79 -462 95 -550 66 -363 83 -547 60 -644 -28 -119 -195 -306 -465 -522
-302 -241 -566 -488 -642 -599 -54 -80 -58 -105 -58 -345 1 -239 17 -409 61
-619 31 -144 60 -226 149 -411 37 -77 93 -200 125 -272 79 -180 188 -378 270
-493 93 -129 119 -184 130 -266 13 -104 31 -854 22 -894 -5 -19 -25 -78 -45
-131 -72 -190 -136 -477 -158 -699 -33 -347 50 -753 223 -1092 90 -176 182
-277 313 -343 152 -76 249 -84 830 -73 303 7 423 12 432 21 19 19 36 155 30
240 -7 89 -33 157 -80 205 -68 72 -157 92 -245 57 l-42 -17 -83 74 c-45 41
-126 106 -179 146 -95 69 -153 134 -197 217 -26 50 -26 71 0 137 132 334 365
1002 540 1548 39 124 124 358 189 520 65 162 130 331 144 375 48 148 54 216
66 785 34 1699 85 2674 215 4075 25 264 52 545 60 625 17 158 102 895 109 948
l5 32 -1110 0 c-776 0 -1109 -3 -1109 -11z"/>
<path d="M9140 10233 c0 -5 -9 -78 -20 -163 -71 -565 -137 -1271 -194 -2080
-66 -918 -140 -2546 -152 -3330 -6 -422 -14 -506 -60 -660 -28 -92 -111 -304
-194 -495 -29 -66 -135 -367 -235 -670 -101 -302 -222 -658 -270 -790 -48
-132 -112 -309 -142 -394 l-56 -154 31 -63 c41 -83 87 -132 200 -216 51 -38
129 -101 173 -140 80 -70 82 -71 113 -58 51 21 120 34 148 27 42 -11 123 -91
147 -146 50 -117 48 -288 -6 -448 -34 -103 -67 -167 -150 -293 -74 -111 -94
-133 -133 -149 -17 -6 292 -10 938 -10 l962 -1 0 5120 0 5120 -550 0 c-302 0
-550 -3 -550 -7z"/>
</g>
</svg>
